<svg width="512" height="512" viewBox="0 0 512 512" fill="none" xmlns="http://www.w3.org/2000/svg">
<g clip-path="url(#clip0_1_3)">
<rect width="512" height="512" fill="#111010"/>
<path d="M238.545 254.06C238.545 258.873 227.398 264.447 205.105 270.78C207.131 297.127 208.145 319.547 208.145 338.04C208.145 369.96 204.091 385.92 195.985 385.92C191.678 385.92 188.258 383.26 185.725 377.94C183.191 372.62 181.165 363.373 179.645 350.2C177.871 325.88 175.971 302.067 173.945 278.76C162.545 281.8 152.158 284.587 142.785 287.12C133.411 289.4 119.225 293.2 100.225 298.52C77.9313 356.787 64.7579 385.92 60.7046 385.92C56.6513 385.92 52.2179 383.513 47.4046 378.7C42.8446 373.633 40.5646 368.313 40.5646 362.74C40.5646 360.207 47.7846 342.22 62.2246 308.78H59.5646C54.4979 308.78 49.9379 307.133 45.8846 303.84C42.0846 300.547 40.1846 296.493 40.1846 291.68C40.1846 286.613 52.7246 280.027 77.8046 271.92C81.8579 262.8 85.1513 254.567 87.6846 247.22C93.5113 232.78 101.618 213.02 112.005 187.94C122.391 162.86 128.978 146.9 131.765 140.06C134.551 132.967 139.365 127.013 146.205 122.2C153.298 117.133 160.138 114.6 166.725 114.6C174.578 114.6 181.545 127.14 187.625 152.22C193.958 177.3 199.025 208.333 202.825 245.32C209.918 244.56 216.125 244.18 221.445 244.18C232.845 244.18 238.545 247.473 238.545 254.06ZM114.285 262.04C132.271 257.227 151.271 253.173 171.285 249.88C166.725 206.56 162.291 174.007 157.985 152.22C146.585 178.313 132.018 214.92 114.285 262.04ZM363.336 151.84L298.356 154.88C294.303 154.88 290.123 152.22 285.816 146.9C281.509 141.58 279.356 136.387 279.356 131.32C279.356 126.76 286.576 123.847 301.016 122.58C315.709 121.313 347.756 120.68 397.156 120.68C422.743 120.68 443.769 123.467 460.236 129.04C476.956 134.613 485.316 140.82 485.316 147.66C485.316 152.473 481.136 154.88 472.776 154.88C464.416 154.88 452.763 154.373 437.816 153.36C422.869 152.347 408.556 151.713 394.876 151.46C395.636 153.993 396.016 156.78 396.016 159.82C396.016 169.193 386.136 212.767 366.376 290.54C364.349 298.647 361.309 311.313 357.256 328.54C353.203 345.767 350.163 357.8 348.136 364.64C344.589 378.067 341.423 384.78 338.636 384.78C334.836 384.78 330.529 381.993 325.716 376.42C321.156 370.593 318.876 364.767 318.876 358.94C318.876 353.113 325.716 323.22 339.396 269.26C353.076 215.047 361.056 175.907 363.336 151.84Z" fill="white"/>
</g>
<defs>
<clipPath id="clip0_1_3">
<rect width="512" height="512" fill="white"/>
</clipPath>
</defs>
</svg>
